<svg width="232" height="47" viewBox="0 0 232 47" fill="none" xmlns="http://www.w3.org/2000/svg">
<rect width="26.4336" height="35.7631" rx="13.2168" transform="matrix(0.866025 0.5 -0.866025 0.5 30.9717 15.5493)" fill="#00B3FF"/>
<rect width="26.4336" height="35.7631" rx="13.2168" transform="matrix(0.866025 0.5 -0.866025 0.5 30.9717 7.7749)" fill="#1579FF"/>
<rect width="26.4336" height="35.7631" rx="13.2168" transform="matrix(0.866025 0.5 -0.866025 0.5 31.0984 0)" fill="#293FFF"/>
<path d="M75.8873 14.2707C78.7562 14.2707 81.0427 15.2226 82.747 17.1264C84.4513 19.0026 85.3034 21.4996 85.3034 24.6175C85.3034 27.7353 84.4371 30.2461 82.7044 32.1499C81.0001 34.0261 78.6852 34.9642 75.7595 34.9642C72.2941 34.9642 69.8229 33.4329 68.3459 30.3702V34.5503H64V5.57942H68.3459V18.906C69.8229 15.8158 72.3367 14.2707 75.8873 14.2707ZM74.5665 31.1152C76.7252 31.1152 78.3159 30.591 79.3385 29.5425C80.3894 28.4664 80.9149 26.8248 80.9149 24.6175C80.9149 22.4101 80.3894 20.7823 79.3385 19.7338C78.3159 18.6577 76.7252 18.1197 74.5665 18.1197C72.3793 18.1197 70.7603 18.6577 69.7093 19.7338C68.6868 20.7823 68.1755 22.4101 68.1755 24.6175C68.1755 26.8248 68.6868 28.4664 69.7093 29.5425C70.7603 30.591 72.3793 31.1152 74.5665 31.1152Z" fill="white"/>
<path d="M103.203 14.6846H108.018L98.8146 37.3647C98.1897 38.9098 97.3943 39.9996 96.4286 40.6342C95.4628 41.2688 94.0568 41.5861 92.2105 41.5861H87.822V37.8199H95.2356L95.4912 36.9922L95.406 37.0749L86.5012 14.6846H91.3158L95.7469 27.2248L97.1955 31.8602L98.7293 27.1834L103.203 14.6846Z" fill="white"/>
<path d="M123.566 18.4508H117.345V30.7841H122.926V34.5503H118.666C116.962 34.5503 115.584 34.0537 114.533 33.0604C113.51 32.0395 112.999 30.7013 112.999 29.0459V18.4508H108.696V14.6846H112.999V8.60067H117.345V14.6846H123.566V18.4508Z" fill="white"/>
<path d="M145.189 24.2036C145.189 24.8382 145.174 25.4176 145.146 25.9418H129.893C130.035 27.9284 130.56 29.3632 131.469 30.2461C132.407 31.1014 133.841 31.5291 135.773 31.5291C137.221 31.5291 138.301 31.3084 139.011 30.8669C139.749 30.4254 140.346 29.6115 140.8 28.4251L144.72 29.8322C144.01 31.5153 142.874 32.7983 141.311 33.6812C139.749 34.5365 137.889 34.9642 135.73 34.9642C132.605 34.9642 130.106 34.0261 128.231 32.1499C126.385 30.2737 125.462 27.7767 125.462 24.6588C125.462 21.5686 126.399 19.0716 128.274 17.1678C130.148 15.2364 132.563 14.2707 135.517 14.2707C138.386 14.2707 140.715 15.1812 142.504 17.0022C144.294 18.7957 145.189 21.1961 145.189 24.2036ZM135.56 17.5817C132.179 17.5817 130.305 19.3337 129.935 22.8378H140.843C140.758 20.9616 140.303 19.6234 139.479 18.8233C138.656 17.9955 137.349 17.5817 135.56 17.5817Z" fill="white"/>
<path d="M149.646 34.5503V5.57942H153.992V34.5503H149.646Z" fill="white"/>
<path d="M162.32 10.5872C160.388 10.5872 159.394 9.63535 159.337 7.73155C159.309 6.84862 159.55 6.17263 160.061 5.70358C160.601 5.23453 161.354 5 162.32 5C164.251 5 165.245 5.91052 165.302 7.73155C165.33 8.64206 165.075 9.34564 164.535 9.84228C164.024 10.3389 163.285 10.5872 162.32 10.5872ZM160.104 34.5503V14.6846H164.45V34.5503H160.104Z" fill="white"/>
<path d="M185.176 14.6846H189.479V32.8535C189.479 35.6678 188.556 37.8889 186.71 39.5168C184.892 41.1723 182.378 42 179.169 42C173.772 42 170.434 40.1652 169.156 36.4955L173.331 34.7573C173.814 36.2196 174.482 37.1991 175.334 37.6958C176.186 38.22 177.507 38.4821 179.296 38.4821C181.313 38.4821 182.79 38.0682 183.728 37.2405C184.693 36.4128 185.176 35.116 185.176 33.3501V29.3356C183.728 32.1499 181.327 33.557 177.976 33.557C175.306 33.557 173.133 32.6741 171.457 30.9083C169.809 29.1148 168.986 26.7834 168.986 23.9139C168.986 21.0444 169.809 18.7267 171.457 16.9609C173.104 15.1674 175.263 14.2707 177.933 14.2707C181.313 14.2707 183.728 15.7192 185.176 18.6163V14.6846ZM179.339 29.7908C183.372 29.7908 185.389 27.8456 185.389 23.9553C185.389 21.9411 184.892 20.4512 183.898 19.4855C182.932 18.5198 181.427 18.0369 179.382 18.0369C177.337 18.0369 175.817 18.5198 174.823 19.4855C173.857 20.4512 173.374 21.9411 173.374 23.9553C173.374 25.9418 173.857 27.418 174.823 28.3837C175.817 29.3218 177.322 29.7908 179.339 29.7908Z" fill="white"/>
<path d="M207.087 14.2707C209.501 14.2707 211.319 14.9605 212.541 16.34C213.79 17.7196 214.415 19.72 214.415 22.3412V34.5503H210.069V22.6309C210.069 21.1685 209.672 20.0511 208.876 19.2785C208.109 18.506 207.016 18.1197 205.596 18.1197C203.835 18.1197 202.443 18.7405 201.42 19.9821C200.426 21.1961 199.929 22.9344 199.929 25.1969V34.5503H195.583V5.57942H199.929V19.4855C201.008 16.0089 203.394 14.2707 207.087 14.2707Z" fill="white"/>
<path d="M232 18.4508H225.779V30.7841H231.361V34.5503H227.1C225.396 34.5503 224.018 34.0537 222.967 33.0604C221.945 32.0395 221.433 30.7013 221.433 29.0459V18.4508H217.13V14.6846H221.433V8.60067H225.779V14.6846H232V18.4508Z" fill="white"/>
</svg>
