<svg width="127" height="22" viewBox="0 0 127 22" fill="none" xmlns="http://www.w3.org/2000/svg">
<rect width="11.7503" height="15.8975" rx="5.87516" transform="matrix(0.866025 0.5 -0.866025 0.5 13.7676 7.27208)" fill="#00B3FF"/>
<rect width="11.7503" height="15.8975" rx="5.87516" transform="matrix(0.866025 0.5 -0.866025 0.5 13.7676 3.81613)" fill="#1579FF"/>
<rect width="11.7503" height="15.8975" rx="5.87516" transform="matrix(0.866025 0.5 -0.866025 0.5 13.8239 0.360077)" fill="#293FFF"/>
<path d="M38.696 5.376C40.312 5.376 41.6 5.928 42.56 7.032C43.52 8.12 44 9.568 44 11.376C44 13.184 43.512 14.64 42.536 15.744C41.576 16.832 40.272 17.376 38.624 17.376C36.672 17.376 35.28 16.488 34.448 14.712V17.136H32V0.336H34.448V8.064C35.28 6.272 36.696 5.376 38.696 5.376ZM37.952 15.144C39.168 15.144 40.064 14.84 40.64 14.232C41.232 13.608 41.528 12.656 41.528 11.376C41.528 10.096 41.232 9.152 40.64 8.544C40.064 7.92 39.168 7.608 37.952 7.608C36.72 7.608 35.808 7.92 35.216 8.544C34.64 9.152 34.352 10.096 34.352 11.376C34.352 12.656 34.64 13.608 35.216 14.232C35.808 14.84 36.72 15.144 37.952 15.144Z" fill="#02043F"/>
<path d="M54.0827 5.616H56.7947L51.6107 18.768C51.2587 19.664 50.8107 20.296 50.2667 20.664C49.7227 21.032 48.9307 21.216 47.8907 21.216H45.4187V19.032H49.5947L49.7387 18.552L49.6907 18.6L44.6747 5.616H47.3867L49.8827 12.888L50.6987 15.576L51.5627 12.864L54.0827 5.616Z" fill="#02043F"/>
<path d="M65.5527 7.8H62.0487V14.952H65.1927V17.136H62.7927C61.8327 17.136 61.0567 16.848 60.4647 16.272C59.8887 15.68 59.6007 14.904 59.6007 13.944V7.8H57.1767V5.616H59.6007V2.088H62.0487V5.616H65.5527V7.8Z" fill="#02043F"/>
<path d="M77.7327 11.136C77.7327 11.504 77.7248 11.84 77.7088 12.144H69.1168C69.1968 13.296 69.4927 14.128 70.0047 14.64C70.5327 15.136 71.3408 15.384 72.4288 15.384C73.2448 15.384 73.8527 15.256 74.2528 15C74.6688 14.744 75.0047 14.272 75.2607 13.584L77.4688 14.4C77.0687 15.376 76.4288 16.12 75.5488 16.632C74.6688 17.128 73.6208 17.376 72.4048 17.376C70.6448 17.376 69.2368 16.832 68.1808 15.744C67.1408 14.656 66.6208 13.208 66.6208 11.4C66.6208 9.608 67.1488 8.16 68.2048 7.056C69.2607 5.936 70.6208 5.376 72.2848 5.376C73.9008 5.376 75.2128 5.904 76.2208 6.96C77.2288 8 77.7327 9.392 77.7327 11.136ZM72.3088 7.296C70.4048 7.296 69.3488 8.312 69.1408 10.344H75.2848C75.2368 9.256 74.9808 8.48 74.5168 8.016C74.0527 7.536 73.3167 7.296 72.3088 7.296Z" fill="#02043F"/>
<path d="M80.2434 17.136V0.336H82.6914V17.136H80.2434Z" fill="#02043F"/>
<path d="M87.3824 3.24C86.2944 3.24 85.7344 2.688 85.7024 1.584C85.6864 1.072 85.8224 0.680001 86.1104 0.408C86.4144 0.136 86.8384 0 87.3824 0C88.4704 0 89.0304 0.528 89.0624 1.584C89.0784 2.112 88.9344 2.52 88.6304 2.808C88.3424 3.096 87.9264 3.24 87.3824 3.24ZM86.1344 17.136V5.616H88.5824V17.136H86.1344Z" fill="#02043F"/>
<path d="M100.257 5.616H102.681V16.152C102.681 17.784 102.161 19.072 101.121 20.016C100.097 20.976 98.6813 21.456 96.8733 21.456C93.8333 21.456 91.9533 20.392 91.2333 18.264L93.5853 17.256C93.8573 18.104 94.2333 18.672 94.7133 18.96C95.1933 19.264 95.9373 19.416 96.9453 19.416C98.0813 19.416 98.9133 19.176 99.4413 18.696C99.9853 18.216 100.257 17.464 100.257 16.44V14.112C99.4413 15.744 98.0893 16.56 96.2013 16.56C94.6973 16.56 93.4733 16.048 92.5293 15.024C91.6013 13.984 91.1373 12.632 91.1373 10.968C91.1373 9.304 91.6013 7.96 92.5293 6.936C93.4573 5.896 94.6733 5.376 96.1773 5.376C98.0813 5.376 99.4413 6.216 100.257 7.896V5.616ZM96.9693 14.376C99.2413 14.376 100.377 13.248 100.377 10.992C100.377 9.824 100.097 8.96 99.5373 8.4C98.9933 7.84 98.1453 7.56 96.9933 7.56C95.8413 7.56 94.9853 7.84 94.4253 8.4C93.8813 8.96 93.6093 9.824 93.6093 10.992C93.6093 12.144 93.8813 13 94.4253 13.56C94.9853 14.104 95.8333 14.376 96.9693 14.376Z" fill="#02043F"/>
<path d="M112.599 5.376C113.959 5.376 114.983 5.776 115.671 6.576C116.375 7.376 116.727 8.536 116.727 10.056V17.136H114.279V10.224C114.279 9.376 114.055 8.728 113.607 8.28C113.175 7.832 112.559 7.608 111.759 7.608C110.767 7.608 109.983 7.968 109.407 8.688C108.847 9.392 108.567 10.4 108.567 11.712V17.136H106.119V0.336H108.567V8.4C109.175 6.384 110.519 5.376 112.599 5.376Z" fill="#02043F"/>
<path d="M126.633 7.8H123.129V14.952H126.273V17.136H123.873C122.913 17.136 122.137 16.848 121.545 16.272C120.969 15.68 120.681 14.904 120.681 13.944V7.8H118.257V5.616H120.681V2.088H123.129V5.616H126.633V7.8Z" fill="#02043F"/>
</svg>
