<svg width="71" height="20" viewBox="0 0 71 20" fill="none" xmlns="http://www.w3.org/2000/svg">
<g clip-path="url(#clip0_7_3460)">
<path d="M63.4437 19.1162C62.5483 19.0202 61.1237 18.7081 60.6494 18.5042L60.4177 18.4037L60.3861 17.256C60.3684 16.6243 60.3484 15.7801 60.3414 15.3797L60.3283 14.6515L60.4674 14.5852C60.5765 14.5412 60.6922 14.5156 60.8097 14.5094L61.0136 14.4998L61.187 14.9269C61.8639 16.5932 62.6583 17.4896 63.695 17.765C64.0909 17.869 64.8326 17.87 65.1255 17.765C65.9456 17.4756 66.3958 16.8544 66.3994 16.0062C66.4044 15.0013 65.8517 14.5183 63.7648 13.7033C62.4719 13.1983 62.0212 12.9381 61.484 12.3888C60.9046 11.7959 60.6267 11.1205 60.5745 10.1809C60.5111 9.04473 60.8669 8.08698 61.6548 7.27093C62.4427 6.45489 63.4769 6.00465 64.8789 5.87651C66.1134 5.76395 68.0084 6.02726 68.9993 6.44634L69.1807 6.52322L69.2128 7.5463C69.2309 8.10908 69.249 8.86332 69.254 9.22261L69.262 9.87587L69.0188 9.96629C68.6345 10.109 68.6093 10.0909 68.3953 9.5241C67.7952 7.93522 67.0988 7.183 66.0129 6.95335C65.3512 6.81366 64.7984 6.96391 64.3964 7.39354C64.0833 7.7287 63.9607 8.02618 63.9311 8.52565C63.8989 9.06734 63.9959 9.35979 64.3266 9.72163C64.7346 10.1678 65.4024 10.5532 66.733 11.109C68.3626 11.7898 69.1404 12.3682 69.563 13.2134C69.8374 13.7621 69.9148 14.2003 69.8877 15.044C69.867 15.6771 69.847 15.8073 69.7027 16.2323C69.233 17.6182 68.1731 18.5308 66.537 18.9584C65.9843 19.1037 65.9029 19.1091 64.8 19.1227C64.1648 19.1317 63.5542 19.1277 63.4437 19.1162Z" fill="#646464"/>
<path d="M0.0668315 18.8142C0.0251246 18.7961 0.00401994 18.6719 0.00401994 18.4403C0.00401994 18.0237 -0.0226122 18.0423 0.782883 17.893C1.40045 17.7785 1.62154 17.6609 1.8944 17.3037C2.42302 16.6102 2.53759 15.2751 2.53859 9.7773C2.53859 4.61422 2.4381 3.52833 1.89339 2.73037C1.65069 2.37863 1.24015 2.18416 0.556762 2.10226L0.0291446 2.03894L0.0145722 1.6269L0 1.21536L0.16532 1.18571C0.256271 1.16963 3.45061 1.16259 7.26353 1.17063L14.1979 1.1847L14.2306 1.3857C14.2487 1.49625 14.2778 2.63037 14.2959 3.9057L14.3286 6.2242L13.9693 6.33424C13.4311 6.49806 13.4341 6.50007 13.1919 5.85939C12.5975 4.28609 11.9156 3.37959 10.9809 2.92182C10.3373 2.60626 10.0398 2.57008 8.22279 2.57008H6.64395L6.61682 2.83388C6.56657 3.32884 6.48517 6.51112 6.48567 8.00956V9.49995L6.95048 9.49744C7.20625 9.49744 7.71025 9.47683 8.07053 9.45573C8.61272 9.42306 8.77402 9.39443 9.00014 9.2894C9.55739 9.03163 9.93627 8.46381 10.1684 7.53973L10.288 7.06286L10.6986 7.04829L11.1086 7.03372V13.0727L10.698 13.0581L10.288 13.0435L10.1714 12.5661C9.95291 11.6692 9.53179 11.027 9.01119 10.7969C8.77101 10.6909 8.17606 10.6301 7.02585 10.5959L6.48567 10.5793V11.7109C6.48567 12.947 6.5535 14.6188 6.64043 15.5263C6.76204 16.7916 7.08514 17.4906 7.66602 17.7434C7.77657 17.7936 8.12732 17.87 8.44539 17.9177C8.76347 17.9655 9.06295 18.0247 9.1112 18.0498C9.23382 18.1132 9.24086 18.7684 9.11974 18.8146C9.02476 18.8513 0.156778 18.8488 0.066329 18.8122L0.0668315 18.8142Z" fill="#646464"/>
<path d="M24.8383 18.8047C24.7926 18.7756 24.7775 18.6594 24.788 18.4158L24.8031 18.0685L24.979 18.0313C25.0755 18.0108 25.2836 17.9695 25.4408 17.9404C25.9272 17.8495 26.2066 17.5852 26.3644 17.068C26.4925 16.6465 26.5489 15.2983 26.5518 12.5913C26.5554 9.28046 26.4865 8.49858 26.1499 8.05538C25.9685 7.81519 25.8373 7.74685 25.3961 7.66243C25.179 7.62072 24.9504 7.576 24.8881 7.56193C24.7876 7.54083 24.7751 7.50816 24.7751 7.26044C24.7751 7.0127 24.79 6.97753 24.8881 6.93733C25.0388 6.87552 30.0166 5.8821 30.1753 5.8821H30.3015L30.2773 6.62327C30.2638 7.0308 30.2421 7.62474 30.2296 7.94232L30.2065 8.52018L30.3868 8.19507C30.9642 7.1539 31.6114 6.5077 32.4722 6.11325C32.945 5.89667 33.2601 5.83185 33.844 5.83185C34.5364 5.83185 35.2289 6.05797 35.2289 6.28409C35.2289 6.43484 34.0088 9.65987 33.9415 9.68547C33.9089 9.69799 33.6707 9.60711 33.4124 9.48446C32.8732 9.22619 32.3682 9.09956 31.8772 9.10107C31.2662 9.10107 30.5839 9.32719 30.3145 9.61607C30.199 9.73978 30.1984 9.74727 30.1698 11.5934C30.1416 13.422 30.2024 15.6521 30.3055 16.549C30.3929 17.3128 30.5958 17.6891 31.0155 17.8646C31.1557 17.9218 32.0411 18.0424 32.33 18.0424C32.3521 18.0424 32.3632 18.2178 32.3551 18.4319L32.3406 18.8213L28.6221 18.8333C26.5769 18.8398 24.874 18.8263 24.8383 18.8037V18.8047Z" fill="#646464"/>
<path d="M24.7802 11.4365C24.5174 9.20645 23.5742 7.57436 22.0114 6.6558C20.2773 5.63524 17.6422 5.57594 15.77 6.51611C14.4198 7.19448 13.3143 8.50196 12.8224 10.0024C12.3164 11.552 12.3164 13.5857 12.8224 15.1675C13.147 16.1805 13.5872 16.9202 14.2661 17.5925C15.0796 18.3966 16.1454 18.9141 17.3639 19.092C17.8001 19.1553 19.1764 19.1568 19.6252 19.092C19.9032 19.0496 20.1786 18.9907 20.4497 18.9156C22.6582 18.276 24.1681 16.5785 24.6837 14.149C24.8083 13.5555 24.8606 12.1174 24.7802 11.4365ZM20.2161 17.1519C19.9824 17.5996 19.5432 18.0111 19.1875 18.1172C17.8141 18.5247 16.8317 17.2167 16.4498 14.4746C16.3268 13.5887 16.3272 11.1752 16.4498 10.1622C16.7187 7.95826 17.3991 6.83871 18.4714 6.8372C18.9542 6.8372 19.2252 6.95479 19.6005 7.33518C20.4999 8.23966 20.9265 9.97125 20.9195 12.6907C20.9155 14.8615 20.701 16.2278 20.2161 17.1519Z" fill="#646464"/>
<path d="M47.2986 10.3803C46.7961 8.08588 45.3655 6.50152 43.4293 6.10103C43.1329 6.03973 42.8656 6.02717 42.2886 6.04726C41.4219 6.07742 40.825 6.20756 40.1782 6.50654C39.9632 6.60704 39.7762 6.68694 39.7616 6.68694C39.7471 6.68694 39.7491 5.37544 39.7661 3.77248C39.7903 1.51378 39.7838 0.858025 39.737 0.858025C39.5732 0.857021 34.4412 1.83337 34.385 1.87809C34.3433 1.91125 34.3252 2.01979 34.3347 2.18411C34.3513 2.46952 34.3176 2.44691 34.9433 2.5861C35.1317 2.6283 35.3518 2.71021 35.4331 2.768C35.6417 2.91874 35.8156 3.23833 35.9356 3.70013C36.0306 4.06393 36.0432 4.32422 36.0864 6.78593C36.1311 9.2984 36.1221 11.8827 36.0532 16.6157L36.0246 18.582L36.3924 18.6653C36.9246 18.7865 38.4481 19.0402 38.9466 19.0905C39.6777 19.1648 41.3822 19.1543 41.9248 19.0728C44.2816 18.7176 46.0579 17.3509 46.8859 15.254C47.1307 14.5934 47.2993 13.907 47.3884 13.2082C47.4774 12.4646 47.4292 10.9788 47.2986 10.3803ZM43.4796 13.7469C43.2539 15.5022 42.6801 16.9182 41.9173 17.6046C41.6128 17.8784 41.3289 18.0237 40.9626 18.093C40.6978 18.1433 40.6184 18.1433 40.1395 18.1066C39.9386 18.091 39.8913 18.0679 39.8501 17.9599C39.7858 17.791 39.7093 11.9013 39.7405 9.54863L39.7651 7.71202L40.0983 7.61404C40.3548 7.54418 40.62 7.51119 40.8858 7.51605C41.3108 7.51605 41.3661 7.52861 41.7243 7.70549C42.5882 8.13261 43.1816 9.19337 43.456 10.8069C43.5565 11.4034 43.569 13.0324 43.477 13.7469H43.4796Z" fill="#646464"/>
<path d="M59.6016 10.9332C59.3694 8.67495 58.4554 7.12023 56.9017 6.34187C55.5213 5.64994 53.3893 5.70019 51.83 6.45996C50.3527 7.18054 49.3356 8.38199 48.7683 10.0779C48.4723 10.9613 48.3794 11.6723 48.409 12.8175C48.4281 13.5416 48.4593 13.9155 48.5362 14.2501C49.1186 16.85 50.9014 18.6177 53.3942 19.0675C53.943 19.1679 55.1891 19.1679 55.7439 19.0715C56.5359 18.9328 57.4493 18.5805 58.0252 18.1917C58.7287 17.7168 59.4493 17.0027 59.4493 16.7811C59.4493 16.646 59.2076 16.3349 59.1026 16.3349C59.0568 16.3349 58.8614 16.4354 58.6689 16.5616C57.981 17.0058 57.3237 17.1887 56.4077 17.1887C55.1464 17.1887 54.3475 16.8741 53.5435 16.063C53.1878 15.7038 53.041 15.5104 52.8571 15.1541C52.4524 14.3715 52.2336 13.4714 52.2008 12.4537L52.1868 12.014L55.9052 12.0014L59.6237 11.9883L59.6402 11.7371C59.6437 11.4686 59.6307 11.2001 59.6016 10.9332ZM54.9731 10.8768C54.4922 10.8935 53.6746 10.9141 53.1566 10.9226L52.2144 10.9376V10.7341C52.2262 10.5152 52.2499 10.2972 52.2853 10.081C52.5993 8.05738 53.3541 6.84286 54.2987 6.84185C55.168 6.84185 55.7057 8.03728 55.8148 10.2272L55.8464 10.8482L54.9731 10.8768Z" fill="#646464"/>
</g>
<defs>
<clipPath id="clip0_7_3460">
<rect width="70.3999" height="19.2" fill="white" transform="translate(0 0.399994)"/>
</clipPath>
</defs>
</svg>
