<svg width="81" height="20" viewBox="0 0 81 20" fill="none" xmlns="http://www.w3.org/2000/svg">
<g clip-path="url(#clip0_7_3468)">
<path d="M11.0899 5.04301V14.9129C11.0899 15.4626 11.1982 16.0069 11.4086 16.5147C11.6189 17.0226 11.9273 17.484 12.3159 17.8727C12.7046 18.2615 13.1661 18.5698 13.6739 18.7801C14.1818 18.9905 14.7261 19.0988 15.2758 19.0988C15.8255 19.0988 16.3698 18.9905 16.8777 18.7801C17.3856 18.5698 17.847 18.2615 18.2357 17.8727C18.6244 17.484 18.9327 17.0226 19.1431 16.5147C19.3535 16.0069 19.4617 15.4626 19.4617 14.9129V5.04301C19.4617 3.93285 19.0207 2.86815 18.2357 2.08315C17.4507 1.29814 16.386 0.857128 15.2758 0.857128C14.1656 0.857128 13.1009 1.29814 12.3159 2.08315C11.5309 2.86815 11.0899 3.93285 11.0899 5.04301ZM14.0862 14.9129V5.04301C14.0838 4.8934 14.1112 4.74483 14.1669 4.60593C14.2225 4.46704 14.3052 4.34061 14.4102 4.23398C14.5152 4.12737 14.6403 4.04271 14.7784 3.98492C14.9164 3.92713 15.0645 3.89738 15.2141 3.8974H15.3199C15.4657 3.8927 15.611 3.91678 15.7475 3.96828C15.8841 4.01978 16.0091 4.09767 16.1155 4.19752C16.2219 4.29737 16.3075 4.41721 16.3676 4.55019C16.4277 4.68316 16.4609 4.82667 16.4655 4.97251V14.9129C16.4609 15.2153 16.3388 15.5041 16.1249 15.7179C15.9111 15.9318 15.6223 16.0539 15.3199 16.0585C15.1637 16.0644 15.0078 16.0394 14.8611 15.985C14.7146 15.9306 14.5801 15.8478 14.4655 15.7414C14.351 15.6351 14.2584 15.5071 14.1933 15.3649C14.1282 15.2227 14.0918 15.0691 14.0862 14.9129ZM43.6076 1.07744H35.1477V4.07365H37.8796V18.7904H40.8758V4.07365H43.6076V1.07744ZM52.42 1.07744V14.9129C52.42 15.2167 52.2994 15.5081 52.0845 15.7229C51.8696 15.9378 51.5783 16.0585 51.2744 16.0585C50.9705 16.0585 50.6792 15.9378 50.4643 15.7229C50.2495 15.5081 50.1288 15.2167 50.1288 14.9129V1.07744H47.0444V14.9129C47.0444 16.0347 47.4901 17.1106 48.2834 17.9039C49.0767 18.6972 50.1525 19.1428 51.2744 19.1428C52.3963 19.1428 53.4722 18.6972 54.2654 17.9039C55.0587 17.1106 55.5044 16.0347 55.5044 14.9129V1.07744H52.42ZM79.8266 4.07365V1.07744H72.4241V18.7904H79.8266V15.7941H75.4203V11.2117H78.2403V8.21547H75.4203V4.07365H79.8266ZM32.3278 18.7904H29.1553L26.9522 10.4185C27.5018 10.3098 27.9964 10.0126 28.3503 9.57822C28.7042 9.14383 28.8955 8.59953 28.8909 8.03922V5.30738C28.8945 5.14883 28.8667 4.99113 28.8093 4.84331C28.7518 4.6955 28.6658 4.56044 28.5561 4.44587C28.4465 4.3313 28.3153 4.23945 28.1701 4.17559C28.025 4.11173 27.8687 4.07708 27.7101 4.07365H26.5116V18.7904H23.5154V1.07744H27.6572C28.7511 1.06986 29.8049 1.48905 30.5948 2.24596C31.3845 3.00287 31.8482 4.03788 31.8871 5.13114V7.9511C31.9267 8.68284 31.7962 9.4138 31.5056 10.0866C31.2151 10.7593 30.7726 11.3556 30.2128 11.8285L32.3278 18.7904ZM65.7267 1.07744V10.7711L62.6424 1.07744H59.5581V18.7904H62.6424V10.1542L65.4623 18.7904H68.8111V1.07744H65.7267ZM0.955688 1.34181V19.0547H4.12815V11.4761H7.03624V8.47984H4.12815V4.33802H8.71059V1.34181H0.955688Z" fill="#646464"/>
</g>
<defs>
<clipPath id="clip0_7_3468">
<rect width="79.5428" height="19.2" fill="white" transform="translate(0.548584 0.399994)"/>
</clipPath>
</defs>
</svg>
