<svg width="91" height="30" viewBox="0 0 91 30" fill="none" xmlns="http://www.w3.org/2000/svg">
<g clip-path="url(#clip0_7_3477)">
<path d="M4.03674 10.2252C4.03674 11.3137 4.33119 11.3941 5.58037 11.4387V11.8135H0.735318V11.4476C1.73466 11.4476 2.02912 11.2781 2.02912 10.2342V3.203C2.02912 2.11442 1.73466 2.0252 0.771009 1.9895V1.6326H9.31008V3.89898H8.89964C8.56058 2.76579 8.1412 2.39103 6.13358 2.39103H4.58102C4.08135 2.39103 4.00105 2.47133 4.00105 2.92639V6.19212H5.7856C7.40954 6.19212 7.7486 5.89767 7.92706 4.85371H8.30182V8.49419H7.92706C7.71292 7.2807 7.08832 6.94164 5.7856 6.94164H4.00105V10.243L4.03674 10.2252ZM14.164 10.2252C14.164 11.3137 14.4496 11.3941 15.7077 11.4387V11.8135H10.6039V11.4476C11.8174 11.4476 12.1565 11.2781 12.1565 10.2342V3.203C12.1565 2.11442 11.9066 2.0252 10.6039 1.9895V1.6326H15.7077V2.01627C14.4942 2.01627 14.164 2.17689 14.164 3.22977V10.2252ZM26.2901 3.41714C26.2901 2.40888 26.0402 1.9895 24.8713 1.86459V1.48983H28.5118V1.86459C27.3787 1.9895 27.0842 2.39995 27.0842 3.41714V11.983H26.5667L19.5445 3.86329V9.84153C19.5445 10.8498 19.7943 11.2603 20.9632 11.3941V11.7689H17.3049V11.3941C18.4381 11.2692 18.7325 10.8587 18.7325 9.84153V2.97101C18.6002 2.69195 18.4003 2.45033 18.1511 2.26803C17.9017 2.08574 17.6109 1.96853 17.3049 1.92705V1.55229H20.1066L26.2544 8.69049V3.41714H26.2901ZM31.7687 8.10159L33.3212 4.04174L34.8648 8.10159H31.7687ZM39.13 11.7777V11.4476C38.3269 11.4476 38.1752 11.1532 37.7915 10.1895L34.1511 1.31138H33.6514L29.886 10.4751C29.8018 10.7469 29.6359 10.9861 29.4107 11.1602C29.1855 11.3343 28.9121 11.4346 28.6279 11.4476V11.8224H31.9204V11.4476C31.2065 11.4476 30.8764 11.2781 30.8764 10.7784C31.0137 10.1379 31.2078 9.51077 31.4564 8.90464H35.1861C35.4553 9.5072 35.6646 10.1349 35.8107 10.7784C35.8107 11.2781 35.4359 11.4476 34.7221 11.4476V11.8224L39.13 11.7777ZM49.1413 3.41714C49.1413 2.40888 48.8914 1.9895 47.7225 1.86459V1.48983H51.363V1.86459C50.2299 1.9895 49.9354 2.39995 49.9354 3.41714V11.983H49.4L42.3778 3.86329V9.84153C42.3778 10.8498 42.6277 11.2603 43.7966 11.3941V11.7689H40.1382V11.3941C41.2714 11.2692 41.5569 10.8587 41.5569 9.84153V2.97101C41.431 2.68914 41.234 2.44477 40.9853 2.26179C40.7366 2.07881 40.4448 1.96347 40.1382 1.92705V1.55229H42.94L49.0877 8.69049L49.1413 3.41714ZM62.1507 9.3954C61.7222 10.2374 61.06 10.9379 60.2433 11.4127C59.4266 11.8875 58.4901 12.1165 57.5465 12.0722C54.2005 12.0722 52.1928 9.89506 52.1928 6.59364C52.1927 5.88302 52.3342 5.17949 52.6087 4.52407C52.8834 3.86865 53.2857 3.27446 53.7923 2.77615C54.299 2.27782 54.8997 1.88536 55.5596 1.62162C56.2194 1.35788 56.9252 1.22815 57.6357 1.23999C58.6024 1.35581 59.5556 1.56499 60.4821 1.86459C60.7676 1.86459 60.8569 1.69505 61.1513 1.23999H61.6867L61.8919 4.66633H61.4725C60.8479 3.07808 59.804 1.9092 57.9927 1.9092C55.5656 1.9092 54.5127 4.58603 54.5127 6.50442C54.5127 9.27047 55.6816 11.1532 58.2782 11.1532C59.0023 11.1132 59.7059 10.8973 60.3278 10.5242C60.9497 10.151 61.4713 9.63188 61.8473 9.01172L62.1507 9.3954ZM67.085 10.1984C67.085 11.287 67.3794 11.3673 68.6375 11.4119V11.7867H63.5337V11.4476C64.7471 11.403 65.0773 11.2781 65.0773 10.2342V3.21192C65.0773 2.12335 64.7829 2.03412 63.5337 1.99843V1.6326H68.6375V2.01627C67.424 2.01627 67.085 2.17689 67.085 3.22977V10.1984ZM72.8579 8.11051L74.4105 4.05066L75.9542 8.11051H72.8579ZM80.2192 11.7867V11.4476C79.4162 11.4476 79.2556 11.1532 78.8808 10.1895L75.2403 1.3203H74.7496L70.9753 10.4839C70.8896 10.7542 70.7229 10.9915 70.4979 11.1639C70.2729 11.3362 70.0003 11.4352 69.7171 11.4476V11.8224H73.0275V11.4476C72.3137 11.4476 71.9835 11.2781 71.9835 10.7784C72.1208 10.1379 72.3149 9.51077 72.5635 8.90464H76.2843C76.5564 9.50694 76.7686 10.1346 76.9178 10.7784C76.9178 11.2781 76.5431 11.4476 75.8292 11.4476V11.8224L80.2192 11.7867ZM81.1115 11.7867V11.4476C82.0751 11.403 82.3696 11.2781 82.3696 10.2342V3.203C82.3696 2.11442 82.0751 2.03412 81.1115 1.9895V1.6326H85.8405V2.00735C84.7074 2.00735 84.4218 2.17689 84.4218 3.22085V10.4483C84.4218 11.0818 84.5825 11.287 85.7156 11.287C87.5537 11.287 88.6423 10.9569 89.5168 9.14556H89.9182L89.2044 11.9116H81.049V11.8224L81.1115 11.7867ZM2.91247 28.0618C4.09027 28.0618 4.3758 27.9012 4.3758 26.8483V18.9427H3.11769C1.94882 18.9427 1.44914 19.4513 1.11007 20.8165H0.690704L0.940541 18.1397H9.97927L10.2291 20.8165H9.80977C9.47066 19.3978 9.00671 18.9427 7.80214 18.9427H6.54403V26.8483C6.54403 27.9369 6.83849 28.0261 8.00736 28.0618V28.4454H3.07308V28.0618H2.91247ZM14.7976 26.8483C14.7976 27.9369 15.092 28.0261 16.3412 28.0618V28.4454H11.2374V28.0618C12.4509 28.0618 12.79 27.9012 12.79 26.8483V19.8261C12.79 18.7376 12.4955 18.6483 11.2374 18.6126V18.2289H16.3412V18.5859C15.1277 18.5859 14.7976 18.7554 14.7976 19.7993V26.8483ZM27.1378 18.1486H30.7068V18.5233C29.7432 18.5233 29.4577 18.6929 29.4577 19.7369V26.8126C29.4577 27.9012 29.7432 27.9815 30.7068 28.0261V28.4009H26.0314V28.0261C27.0396 28.0261 27.3251 27.8565 27.3251 26.8126V19.5852L23.8898 28.5793H23.3545L19.9638 19.5852V26.5271C19.9638 27.5264 20.2137 27.9458 21.3826 28.0708V28.4544H17.7064V28.0708C18.8396 27.9458 19.1251 27.5353 19.1251 26.5271V19.4781C19.1251 18.7732 18.8396 18.5145 17.7064 18.5145V18.1397H21.4272L24.1575 25.2779L27.1378 18.1486ZM32.1167 28.4009V28.0261C33.0803 28.0261 33.3659 27.8565 33.3659 26.8126V19.8261C33.3659 18.7376 33.0803 18.6483 32.1167 18.6126V18.2289H40.6825V20.4953H40.2631C39.933 19.3621 39.5136 18.9873 37.506 18.9873H35.9535C35.4449 18.9873 35.3645 19.0677 35.3645 19.5227V22.7885H37.1491C38.7819 22.7885 39.1121 22.494 39.2905 21.4501H39.6653V25.0905H39.2905C39.0854 23.877 38.4518 23.5825 37.1491 23.5825H35.3645V27.1517C35.3645 27.7852 35.5341 27.9904 37.3722 27.9904C39.2102 27.9904 40.2988 27.6602 41.1822 25.8489H41.5569L40.8431 28.5882H32.0274V28.4009H32.1167ZM43.0024 25.1887H43.3772C43.7966 26.5271 45.1617 27.9904 46.6429 27.9904C46.8766 28.0126 47.1124 27.9841 47.3341 27.9068C47.5559 27.8296 47.7584 27.7054 47.9278 27.5428C48.0971 27.3801 48.2295 27.1829 48.3157 26.9646C48.4019 26.7461 48.44 26.5117 48.4274 26.2772C48.4274 23.8948 43.0738 23.4755 43.0738 20.5488C43.1153 19.8088 43.4448 19.1144 43.9918 18.6141C44.5387 18.1139 45.2596 17.8475 46.0005 17.872C47.544 17.872 48.0884 18.4074 48.7576 18.4074C48.8996 18.4074 49.0358 18.351 49.1362 18.2506C49.2366 18.1501 49.293 18.014 49.293 17.872H49.6677V21.2626H49.293C49.1669 20.5722 48.8157 19.9431 48.2943 19.4734C47.7729 19.0036 47.1107 18.7198 46.4109 18.6661C46.2076 18.6445 46.0021 18.6665 45.808 18.7306C45.6139 18.7948 45.4357 18.8996 45.2854 19.0381C45.1351 19.1766 45.016 19.3456 44.9362 19.5338C44.8564 19.7221 44.8177 19.9251 44.8227 20.1295C44.8227 22.2263 50.1763 22.2709 50.1763 25.9025C50.1682 26.3033 50.0776 26.698 49.9102 27.0621C49.7428 27.4264 49.5022 27.7521 49.2033 28.0192C48.9044 28.2862 48.5537 28.4889 48.1731 28.6144C47.7925 28.7399 47.39 28.7857 46.9909 28.7489C45.2063 28.7489 44.7334 28.1242 44.0196 28.1242C43.7698 28.1242 43.6003 28.2937 43.4843 28.6596H42.9488L43.0024 25.1887Z" fill="#646464"/>
</g>
<defs>
<clipPath id="clip0_7_3477">
<rect width="90.5142" height="28.3428" fill="white" transform="translate(0.280029 0.828568)"/>
</clipPath>
</defs>
</svg>
