<svg width="53" height="30" viewBox="0 0 53 30" fill="none" xmlns="http://www.w3.org/2000/svg">
<g clip-path="url(#clip0_7_3475)">
<path d="M8.86786 1.37433V1.92226L9.3755 2.04312C10.1813 2.2365 10.278 2.71191 10.5922 4.2026L11.398 8.40873L9.13376 20.6807L6.02347 5.25816C5.66894 3.56603 5.55612 2.30903 6.82925 2.03506L7.41746 1.9142V1.37433H0.0526886V1.92226L0.802058 2.09953C1.55143 2.29292 1.86568 2.64745 2.37332 4.96808L7.36912 28.6175H8.65836L12.0023 10.7536L15.7088 28.6175H16.7322L21.5669 5.70133C22.1148 3.06646 22.3726 2.31709 23.2992 2.07535L24.0487 1.88196V1.37433H18.5855V1.92226L19.3912 2.08341C20.5677 2.31708 20.8497 3.06646 20.2937 6.11228L17.3526 20.6968L14.3712 5.27428C14.049 3.7433 13.8556 2.32514 15.1771 2.05118L16.0393 1.89003V1.3421L8.86786 1.37433ZM43.8707 1.44685V2.00283L44.8537 2.2365C45.7159 2.42989 46.0704 2.74414 46.0704 3.84806V22.9287C46.0704 25.056 46.0704 27.844 43.8707 27.844C42.6137 27.844 41.6307 26.7482 41.7032 25.9988C41.7837 24.7821 43.911 24.8546 44.0238 22.8885C44.0697 22.6419 44.0635 22.3886 44.0056 22.1446C43.9477 21.9006 43.8394 21.6714 43.6876 21.4718C43.5358 21.2722 43.3439 21.1066 43.1242 20.9856C42.9046 20.8646 42.6621 20.791 42.4122 20.7693C41.1955 20.6082 39.6968 21.6315 39.6564 23.6782C39.6564 26.3131 41.3486 28.7142 44.2977 28.7142C47.5612 28.7142 49.6964 26.5064 49.6964 22.2681V3.88834C49.6964 2.78444 49.9704 2.42989 50.752 2.2768L51.6222 1.98671V1.43879L43.8707 1.44685ZM30.6157 1.29375C27.2717 1.29375 25.3862 4.08979 25.3862 7.73994C25.3862 14.5488 34.1611 17.1836 34.1611 23.3236C34.1611 26.2324 32.9364 27.844 31.1717 27.844C28.5368 27.844 26.6513 24.6612 26.1759 19.5848H25.5877V28.545H26.063C26.4579 27.2558 26.9655 27.1269 27.4006 27.1269C28.1501 27.1269 28.9316 28.6982 31.212 28.6982C34.7171 28.6982 36.9974 25.6764 36.9974 21.5025C36.9974 13.3159 28.2548 11.3095 28.2548 5.45154C28.2548 4.11396 28.6496 2.14787 30.6157 2.14787C33.452 2.14787 34.6446 5.8786 35.1442 10.4071H35.7323V1.43879H35.265C35.0635 2.30097 34.7091 2.6958 34.2014 2.6958C33.2909 2.6958 32.8316 1.28569 30.6559 1.28569L30.6157 1.29375ZM36.9491 9.01307V9.10976V9.02918V9.01307Z" fill="#646464"/>
</g>
<defs>
<clipPath id="clip0_7_3475">
<rect width="52.1142" height="28.3428" fill="white" transform="translate(0.0171509 0.828568)"/>
</clipPath>
</defs>
</svg>
