<svg width="24" height="24" viewBox="0 0 24 24" fill="none" xmlns="http://www.w3.org/2000/svg">
<path d="M21.45 8.55L20.25 8L21.45 7.45L22 6.25L22.55 7.45L23.75 8L22.55 8.55L22 9.75L21.45 8.55ZM18.175 3.825L16.375 3L18.175 2.175L19 0.375L19.825 2.175L21.625 3L19.825 3.825L19 5.625L18.175 3.825ZM9 21.575C8.5 21.575 8.06667 21.4 7.7 21.05C7.33333 20.7 7.13333 20.275 7.1 19.775H10.9C10.8667 20.275 10.6667 20.7 10.3 21.05C9.93333 21.4 9.5 21.575 9 21.575ZM6 18.375C5.78333 18.375 5.60433 18.3043 5.463 18.163C5.321 18.021 5.25 17.8417 5.25 17.625C5.25 17.425 5.321 17.25 5.463 17.1C5.60433 16.95 5.78333 16.875 6 16.875H12C12.2167 16.875 12.396 16.95 12.538 17.1C12.6793 17.25 12.75 17.425 12.75 17.625C12.75 17.8417 12.6793 18.021 12.538 18.163C12.396 18.3043 12.2167 18.375 12 18.375H6ZM5.4 15.5C4.35 14.85 3.521 14 2.913 12.95C2.30433 11.9 2 10.75 2 9.5C2 7.55 2.679 5.89567 4.037 4.537C5.39567 3.179 7.05 2.5 9 2.5C10.95 2.5 12.6043 3.179 13.963 4.537C15.321 5.89567 16 7.55 16 9.5C16 10.75 15.696 11.9 15.088 12.95C14.4793 14 13.65 14.85 12.6 15.5H5.4Z" fill="#FFCB14"/>
</svg>
